<?xml version="1.0" standalone="no"?>
<!DOCTYPE svg PUBLIC "-//W3C//DTD SVG 20010904//EN"
 "http://www.w3.org/TR/2001/REC-SVG-20010904/DTD/svg10.dtd">
<svg version="1.0" xmlns="http://www.w3.org/2000/svg"
 width="230.000000pt" height="86.000000pt" viewBox="0 0 230.000000 86.000000"
 preserveAspectRatio="xMidYMid meet">

<g transform="translate(0.000000,86.000000) scale(0.100000,-0.100000)"
fill="#000000" stroke="none">
<path d="M308 513 c-18 -21 -31 -43 -25 -43 2 0 13 14 25 30 25 33 24 41 0 13z"/>
<path d="M643 523 c15 -2 37 -2 50 0 12 2 0 4 -28 4 -27 0 -38 -2 -22 -4z"/>
<path d="M730 520 c8 -5 20 -10 25 -10 6 0 3 5 -5 10 -8 5 -19 10 -25 10 -5 0
-3 -5 5 -10z"/>
<path d="M1073 523 c9 -2 25 -2 35 0 9 3 1 5 -18 5 -19 0 -27 -2 -17 -5z"/>
<path d="M1425 519 c-4 -6 -4 -13 -1 -16 3 -4 6 -1 6 5 0 6 8 13 18 15 15 4
15 5 0 6 -9 0 -20 -4 -23 -10z"/>
<path d="M1699 513 c-11 -15 -11 -16 1 -6 11 10 17 10 31 -3 14 -13 21 -13 36
-4 17 11 17 11 -1 6 -11 -4 -26 0 -36 9 -16 14 -18 14 -31 -2z"/>
<path d="M1877 523 c23 -2 47 -11 53 -19 7 -7 17 -14 23 -14 5 0 -2 9 -16 20
-17 13 -38 19 -64 18 l-38 -1 42 -4z"/>
<path d="M340 516 c0 -3 9 -10 20 -16 11 -6 20 -8 20 -6 0 3 -9 10 -20 16 -11
6 -20 8 -20 6z"/>
<path d="M568 513 c6 -2 18 -2 25 0 6 3 1 5 -13 5 -14 0 -19 -2 -12 -5z"/>
<path d="M1010 510 c-18 -12 -2 -12 25 0 13 6 15 9 5 9 -8 0 -22 -4 -30 -9z"/>
<path d="M1286 512 c-2 -4 4 -8 14 -8 10 0 16 4 14 8 -3 4 -9 8 -14 8 -5 0
-11 -4 -14 -8z"/>
<path d="M1798 513 c6 -2 18 -2 25 0 6 3 1 5 -13 5 -14 0 -19 -2 -12 -5z"/>
<path d="M421 485 c-25 -14 -49 -32 -54 -41 -7 -11 2 -9 24 8 57 43 76 50 102
38 21 -11 21 -10 3 4 -25 20 -22 20 -75 -9z"/>
<path d="M546 465 c3 -22 12 -48 21 -57 9 -10 12 -26 9 -40 -4 -16 -1 -14 9 7
20 42 18 59 -7 70 -12 6 -26 21 -30 35 -5 16 -6 11 -2 -15z"/>
<path d="M806 490 c12 -5 40 -26 63 -48 70 -67 49 -118 -71 -171 -62 -28 -69
-29 -84 -14 -12 12 -14 28 -10 62 5 43 5 44 -5 12 -7 -24 -13 -31 -21 -23 -8
8 -7 24 2 56 14 50 26 59 33 24 3 -13 4 -5 4 17 -2 33 -6 41 -24 43 -17 3 -23
-2 -23 -16 0 -11 -7 -38 -15 -62 -14 -40 -14 -43 7 -59 26 -22 18 -51 -14 -52
-41 -1 -83 -6 -105 -13 -13 -4 -25 -1 -33 9 -7 8 -28 15 -49 15 -23 0 -50 9
-71 24 l-35 25 -38 -42 -37 -42 -21 25 c-17 19 -20 33 -15 70 5 39 4 41 -5 15
-12 -38 -6 -88 15 -120 22 -34 39 -31 74 10 l29 36 48 -26 c26 -14 60 -25 74
-25 15 0 31 -4 37 -10 11 -11 153 7 171 22 9 7 14 6 19 -5 3 -9 12 -18 21 -21
16 -7 156 55 168 74 6 9 9 9 16 -1 6 -10 9 -8 9 9 0 15 6 22 20 22 23 0 90 31
90 42 0 12 -37 28 -67 28 -37 0 -53 16 -53 52 0 24 7 32 43 48 23 11 36 20 29
20 -21 0 -70 -28 -80 -47 -9 -15 -14 -13 -50 15 -22 18 -46 32 -53 31 -8 0 -4
-4 7 -9z m164 -160 c0 -5 -9 -10 -20 -10 -11 0 -20 5 -20 10 0 6 9 10 20 10
11 0 20 -4 20 -10z"/>
<path d="M1522 488 c-7 -7 -12 -18 -12 -25 0 -7 -4 -13 -8 -13 -7 0 -17 -41
-36 -148 -10 -57 -56 -70 -78 -22 -19 43 -31 40 -80 -19 -23 -27 -43 -27 -64
2 -16 22 -16 22 -10 -8 7 -31 30 -55 54 -55 7 0 28 16 45 35 32 37 47 44 47
22 0 -25 37 -50 64 -43 24 6 27 11 41 71 l7 30 14 -35 c30 -71 71 -87 137 -54
34 17 97 81 97 98 0 6 4 5 9 -2 9 -14 12 -6 31 66 7 27 5 32 -9 32 -10 0 -22
-13 -29 -32 -32 -86 -150 -163 -198 -130 -18 12 -44 73 -44 104 0 40 20 117
33 125 6 3 19 -4 29 -17 10 -12 18 -18 18 -13 0 10 -32 43 -41 43 -3 0 -10 -5
-17 -12z"/>
<path d="M1331 473 c7 -12 15 -20 18 -17 3 2 -3 12 -13 22 -17 16 -18 16 -5
-5z"/>
<path d="M1411 474 c0 -11 3 -14 6 -6 3 7 2 16 -1 19 -3 4 -6 -2 -5 -13z"/>
<path d="M1476 477 c3 -10 9 -15 12 -12 3 3 0 11 -7 18 -10 9 -11 8 -5 -6z"/>
<path d="M1682 470 c0 -14 2 -19 5 -12 2 6 2 18 0 25 -3 6 -5 1 -5 -13z"/>
<path d="M1157 457 c-5 -14 -20 -17 -74 -17 -66 -1 -67 -1 -40 -16 15 -8 27
-18 27 -22 0 -4 20 -6 45 -4 49 4 68 23 55 56 -6 17 -7 18 -13 3z"/>
<path d="M1971 459 c-1 -9 -10 -27 -20 -40 -19 -24 -19 -25 5 -52 13 -16 24
-24 24 -18 0 5 -4 12 -9 15 -5 4 -3 19 5 35 10 20 11 35 5 52 -6 15 -10 18
-10 8z"/>
<path d="M510 452 c0 -6 -23 -26 -50 -44 -62 -41 -62 -62 0 -66 25 -2 53 -10
62 -19 18 -16 48 -11 48 8 0 8 -4 8 -15 -1 -13 -10 -19 -10 -33 3 -9 8 -30 17
-46 19 l-29 3 39 25 c40 26 54 54 35 73 -8 8 -11 8 -11 -1z"/>
<path d="M1846 451 c-17 -6 -17 -8 -3 -14 8 -3 21 1 27 9 13 15 6 17 -24 5z"/>
<path d="M1262 430 c0 -14 2 -19 5 -12 2 6 2 18 0 25 -3 6 -5 1 -5 -13z"/>
<path d="M778 389 c2 -27 6 -49 9 -49 14 0 63 36 63 46 0 12 -31 35 -60 46
-12 4 -14 -3 -12 -43z m46 -20 c-8 -14 -24 -10 -24 6 0 9 6 12 15 9 8 -4 12
-10 9 -15z"/>
<path d="M1346 428 c-4 -9 -6 -25 -4 -36 3 -16 8 -17 36 -10 20 6 32 15 32 26
-1 16 -1 16 -11 0 -15 -27 -37 -22 -41 10 -3 21 -6 24 -12 10z"/>
<path d="M256 405 c-9 -26 -7 -32 5 -12 6 10 9 21 6 23 -2 3 -7 -2 -11 -11z"/>
<path d="M1588 414 c-10 -9 -11 -74 -2 -74 15 0 73 42 78 57 4 10 -4 5 -20
-10 -34 -35 -42 -34 -46 4 -2 17 -6 27 -10 23z"/>
<path d="M1252 380 c0 -14 2 -19 5 -12 2 6 2 18 0 25 -3 6 -5 1 -5 -13z"/>
<path d="M1090 344 c0 -54 -109 -122 -152 -95 -17 11 -19 10 -16 -10 5 -35 30
-45 79 -30 78 23 128 95 99 141 -8 12 -10 11 -10 -6z"/>
<path d="M1859 353 c-18 -4 -33 -43 -18 -43 17 0 69 30 69 40 0 10 -21 11 -51
3z"/>
<path d="M1975 311 c-4 -15 -25 -31 -61 -47 -84 -37 -164 -26 -164 23 0 9 -3
14 -6 11 -10 -11 16 -86 32 -92 34 -13 101 -5 151 18 58 27 77 53 64 88 l-8
23 -8 -24z"/>
</g>
</svg>
